<svg xmlns="http://www.w3.org/2000/svg" height="341.6" viewBox="0 0 477.96 341.65" width="478"><defs><clipPath id="a" clipPathUnits="userSpaceOnUse"><path d="M0 279.8h384V0H0z"/></clipPath></defs><g clip-path="url(#a)" transform="matrix(1.333 0 0 -1.333 -12.18 355.8)"><path d="M9.13 83.09l40.48.04a31.82 31.82 0 00.01-12.3l-26-.03.02-15.48 20.64.02a32.7 32.7 0 00.01-12.4l-20.64-.02.01-18.85 26.7.02a31.83 31.83 0 00.01-12.3l-41.18-.05zm52.29.04c1.26.2 2.48.33 3.67.4a66.26 66.26 0 007.14 0c1.19-.06 2.42-.19 3.67-.39l.03-37c0-4.04.16-7.5.46-10.38.3-2.87.9-5.25 1.8-7.14a8.93 8.93 0 013.76-4.16c1.63-.9 3.73-1.34 6.3-1.34 2.59 0 4.67.45 6.26 1.35s2.82 2.28 3.71 4.17 1.49 4.27 1.78 7.14c.3 2.88.44 6.34.44 10.37l-.03 37c1.32.2 2.58.33 3.77.4a64.81 64.81 0 007.1 0c1.22-.06 2.46-.19 3.71-.38l.04-40.08c0-4.83-.39-9.25-1.18-13.25-.8-4-2.21-7.43-4.26-10.27-2.05-2.85-4.79-5.05-8.23-6.6s-7.8-2.35-13.09-2.35-9.66.77-13.1 2.32a20.1 20.1 0 00-8.24 6.59 25.92 25.92 0 00-4.27 10.26c-.8 4-1.2 8.41-1.2 13.24zM171.5 48.8a28.28 28.28 0 005.06.4 31.78 31.78 0 004.96-.4l.03-34.81a31.49 31.49 0 00-4.56-1.55 41.62 41.62 0 00-5.16-1 99.39 99.39 0 00-5.36-.54c-1.78-.14-3.47-.2-5.06-.2-5.29 0-10.06.81-14.29 2.46a28.46 28.46 0 00-10.72 7.19 31.96 31.96 0 00-6.7 11.45 46.6 46.6 0 00-2.35 15.28c0 5.69.79 10.83 2.37 15.43a33.46 33.46 0 006.79 11.76 30.15 30.15 0 0010.5 7.5 33.88 33.88 0 0013.55 2.64c3.77 0 7.04-.24 9.82-.74a42.03 42.03 0 007.54-2.02 18.3 18.3 0 00-.84-4.22 67.56 67.56 0 00-1.54-4.12c-1.85.6-3.85 1.12-6 1.58s-4.85.7-8.09.7c-3.5-.01-6.7-.64-9.57-1.9a19.75 19.75 0 01-7.34-5.51 26.05 26.05 0 01-4.7-8.94 40.11 40.11 0 01-1.68-12.16c0-4.7.59-8.75 1.75-12.15a23.4 23.4 0 014.91-8.53 19.56 19.56 0 017.5-5.05 26.83 26.83 0 019.58-1.63c2.11 0 3.96.12 5.55.35 1.59.23 2.94.52 4.07.85zm26.2 34.45c.73.13 1.5.23 2.33.3a33.5 33.5 0 007.69-.3l.05-62.4 27.98.02c.14-.73.22-1.49.25-2.28a43 43 0 00.05-2.18c0-1.59-.1-3.08-.29-4.47l-38-.03zm73.7-63.73c3.3 0 6.17.65 8.58 1.94a16.23 16.23 0 016 5.61 27.43 27.43 0 013.56 8.84c.8 3.44 1.19 7.34 1.18 11.7 0 4.3-.4 8.19-1.2 11.67a26.85 26.85 0 01-3.58 8.82 16.35 16.35 0 01-6 5.55 17.96 17.96 0 01-8.59 1.93c-3.3 0-6.17-.65-8.58-1.94a16.31 16.31 0 01-6-5.56 26.87 26.87 0 01-3.56-8.84 52.48 52.48 0 01-1.18-11.66c0-4.36.4-8.26 1.2-11.7.8-3.44 1.99-6.39 3.58-8.83a16.2 16.2 0 016-5.6 17.77 17.77 0 018.59-1.95m0-8.73c-5.15 0-9.62.9-13.4 2.72a25.45 25.45 0 00-9.38 7.63 33.72 33.72 0 00-5.56 11.65 56.15 56.15 0 00-1.85 14.78c0 5.36.6 10.28 1.82 14.78A33.67 33.67 0 00248.58 74c2.48 3.28 5.6 5.84 9.37 7.7s8.23 2.78 13.39 2.79c5.16 0 9.62-.92 13.4-2.77 3.77-1.85 6.9-4.4 9.38-7.68a33.1 33.1 0 005.52-11.65c1.2-4.5 1.8-9.42 1.8-14.78a58.2 58.2 0 00-1.78-14.78 33.04 33.04 0 00-5.5-11.66 25.43 25.43 0 00-9.37-7.65c-3.76-1.82-8.23-2.74-13.39-2.74m44.8 72.57a29.11 29.11 0 005.06.4 34.8 34.8 0 005.06-.4l.03-29.36 30.36.02-.03 29.37c.73.14 1.52.24 2.38.3a34.23 34.23 0 007.74-.29l.06-71.34c-.73-.13-1.52-.23-2.38-.3a36.07 36.07 0 00-5.3 0c-.9.07-1.71.16-2.44.3l-.03 33.03-30.36-.02.03-33.04a29.7 29.7 0 00-5.06-.4 33.75 33.75 0 00-5.06.4zm46.9 30.75l-4.94.78c-34.17 5.93-54.32 17.56-59.92 34.59a33.14 33.14 0 00-1.6 8.92c-2.14-.45-4.32-.9-6.52-1.38a48.48 48.48 0 012.2-11.15c2.9-8.82 8.4-16.64 16.35-23.24a3.55 3.55 0 00-2.54-6.27c-15.44 1.2-30.35 2.13-44.33 2.79-37.51 1.77-69.18 1.66-94.13-.35l-4.66-.4a3.43 3.43 0 00-2.82.97c-11.47-5.16-18.9-9.73-23.69-13.6a5.47 5.47 0 00-8.62 2.22 5.64 5.64 0 017.8-4.31c15.05 6.23 48.94 11.95 124.9 8.36 43.41-2.05 84.16-6.43 101.2-8.4a5.28 5.28 0 015.84 4.57 5.23 5.23 0 01-4.4 5.9" fill="#2b5a9d"/><path d="M352.6 172.9a5.17 5.17 0 01-5.79 4.3l-4.84-.64c-16.72-1.94-30.59-1.6-41.53 1a56.9 56.9 0 00-7.29 2.24c-7.34 2.81-12.94 6.95-16.78 12.42l-5.68-3.27c.33-.53.66-1.06 1.01-1.57 4.7-6.82 11.21-12.22 19.35-16.15.79-.38 1.57-.76 2.39-1.11a3.47 3.47 0 00-.65-6.58l-2.73-.6a1446.73 1446.73 0 01-39.58-9.06c-29.84-7.3-55.46-14.7-76.42-22.08a422.05 422.05 0 01-15.95-5.96 3.42 3.42 0 00-4.44 1.77 3.36 3.36 0 00.56 3.75c26.14 29.4 61.4 67.23 104.8 112.5 2.4 2.51 6.6.3 5.9-3.1-3.7-17.99-2.92-33.15 2.28-45.24l5.64 3.24c-7.74 19.3 1.65 46.08 7.2 58.97a6.55 6.55 0 01-10.74 7.16c-91.02-94.1-127.2-136.1-140.6-152.6a5.51 5.51 0 01-.81-5.55 5.48 5.48 0 018.62-2.22c4.78 3.86 12.22 8.43 23.69 13.59 18.25 8.22 46.72 17.95 91 28.79a1320.96 1320.96 0 0045.45 10.23 1594.9 1594.9 0 0051.69 9.88 5.05 5.05 0 014.3 5.84" fill="#d95b29"/><path d="M293.4 170.1c-.82.35-1.6.73-2.38 1.11a63.94 63.94 0 01-1-8.28l2.73.59c3.31.7 3.76 5.24.65 6.58m27.7 49.5a6.72 6.72 0 01-8.64 1.76 6974.27 6974.27 0 01-39.64-22.6l-5.64-3.23c-56.35-32.43-91.72-54-113.6-67.87a3.42 3.42 0 014.44-1.78 379.75 379.75 0 0015.95 5.97 4318.98 4318.98 0 0096.62 57.14l5.68 3.27c6.5 3.74 13.16 7.55 19.96 11.44a3.56 3.56 0 004.9-4.76 107.67 107.67 0 01-8.09-19.1 57 57 0 017.3-2.24c5.18 13.8 14.53 26.4 20.54 33.62a6.72 6.72 0 01.15 8.37" fill="#4d99c0"/></g></svg>